<svg id="Capa_1" data-name="Capa 1" xmlns="http://www.w3.org/2000/svg" viewBox="0 0 91.25 56.83"><defs><style>.cls-1{fill:#fff;}.cls-2{fill:#fff;}</style></defs><title>transporta_icon</title><path class="cls-1" d="M87.9,67S74.56,66.67,64,69.75,52,79,52,79H87.9Z" transform="translate(-52 -67)"/><path class="cls-2" d="M117,111.46a7,7,0,0,0-11.63,5.33A7,7,0,1,0,117,111.46Z" transform="translate(-52 -67)"/><path class="cls-2" d="M133.45,111.46a7,7,0,0,0-9.17,0,7,7,0,1,0,9.17,0Z" transform="translate(-52 -67)"/><path class="cls-2" d="M83.8,111.46a7,7,0,0,0-11.63,5.33,7,7,0,1,0,11.63-5.33Z" transform="translate(-52 -67)"/><path class="cls-2" d="M73.2,105.3,66,114.19H52V120H67l4-5.2a8.4,8.4,0,0,1,14.66-3.34h20.2a8.39,8.39,0,0,1,13,0h3.47a8.39,8.39,0,0,1,13,0h7.89L143,105Z" transform="translate(-52 -67)"/><path class="cls-1" d="M52,81.77v29.69H65l6.5-8.55H87.9V81.77Zm5.81,28.32H53v-1.71h4.78Zm6.84-14.36H53V83.42H64.65Zm7.86,0H66V83.42h6.49Z" transform="translate(-52 -67)"/></svg>