<?xml version="1.0" encoding="utf-8"?>
<!-- Generator: Adobe Illustrator 22.1.0, SVG Export Plug-In . SVG Version: 6.00 Build 0)  -->
<svg version="1.1" id="Capa_1" xmlns="http://www.w3.org/2000/svg" xmlns:xlink="http://www.w3.org/1999/xlink" x="0px" y="0px"
	 viewBox="0 0 2048 2048" style="enable-background:new 0 0 2048 2048;" xml:space="preserve">
<style type="text/css">
	.st0{fill:#565656;}
	.st1{fill:#FFBB00;}
</style>
<g>
	<path d="M392,556c0,43.1,0,75.6,0,97.6c65.1,0,113.9,0,146.4,0c0,43.1,0,75.4,0,97c-65.1,0-113.9,0-146.4,0c0,43.1,0,75.6,0,97.6
		c86.6,0,151.5,0,194.6,0c0,43.1,0,75.4,0,97c-86.2,0-151,0-194.6,0c-43.1,0-75.4,0-97,0c0-43.1,0-75.4,0-97c0-22,0-41.1,0-57.4
		c0-16.3,0-29.7,0-40.2c0-48.8,0-81.1,0-97c0-48.8,0-81.3,0-97.6c0-48.4,0-80.7,0-97c48.8,0,81.1,0,97,0c97.6,0,162.5,0,194.6,0
		c0,48.4,0,80.7,0,97C500.3,556,435.5,556,392,556z"/>
	<path d="M975.7,507.1c0,97.6,0,243.6,0,438c-21.5,0-53.9,0-97,0c0-86.6,0-216.3,0-389.1c-21.5,0-54.1,0-97.6,0
		c0,86.6,0,216.3,0,389.1c-21.5,0-53.9,0-97,0c0-54.1,0-121.6,0-202.5c0-80.9,0-175.4,0-283.6c21.5,0,53.9,0,97,0
		c32.5,0,81.3,0,146.4,0c13.2,0,24.6,4.6,34.3,13.9C971.1,482.5,975.7,494,975.7,507.1z"/>
	<path d="M1170.2,945.1c-43.1,0-75.4,0-97,0c0-43.1,0-75.4,0-97c0-43.5,0-76.1,0-97.6c0-43.1,0-75.4,0-97c0-21.5,0-40.5,0-56.7
		c0-16.7,0-30.3,0-40.9c0-43.1,0-75.4,0-97c43.1,0,75.4,0,97,0c86.6,0,151.5,0,194.6,0c0,43.1,0,75.4,0,97c-86.2,0-151,0-194.6,0
		c0,48.8,0,81.4,0,97.6c73,0,121.8,0,146.4,0c0,48.4,0,80.7,0,97c-73,0-121.8,0-146.4,0c0,48.8,0,81.4,0,97.6
		C1170.2,891.2,1170.2,923.6,1170.2,945.1z"/>
	<path d="M1754,945.1c-21.5,0-53.9,0-97,0c0-43.1,0-107.9,0-194.6c-21.5,0-54.1,0-97.6,0c0,43.1,0,108,0,194.6c-21.6,0-53.9,0-97,0
		c0-36.5,0-91.5,0-164.9c0-30.3,0-68.2,0-113.4c0-45.7,0-98.9,0-159.6c0-13.2,4.8-24.6,14.5-34.3c9.2-9.2,20.7-13.9,34.3-13.9
		c43.1,0,107.9,0,194.6,0c13.2,0,24.6,4.6,34.3,13.9c9.2,9.7,13.9,21.1,13.9,34.3C1754,604.8,1754,750.8,1754,945.1z M1657,653.6
		c0-4,0-9.7,0-17.1c0-18,0-44.9,0-80.5c-21.5,0-54.1,0-97.6,0c0,21.5,0,54.1,0,97.6C1581.4,653.6,1613.9,653.6,1657,653.6z"/>
</g>
<g>
	<path class="st0" d="M361.8,1164.6c17.3,0,32,6.1,44.2,18.3c12.2,12.2,18.3,26.9,18.3,44v112.3c0,17.3-6.1,32-18.3,44.2
		c-12.2,12.2-26.9,18.3-44.2,18.3h-50.5c-4.3,0-8-1.5-11-4.5c-3-3.1-4.5-6.8-4.5-11v-206.3c0-4.2,1.5-7.8,4.5-10.9
		c3.1-3,6.8-4.5,11-4.5H361.8z M393.5,1226.9c0-8.7-3.1-16.1-9.4-22.3c-6.2-6.2-13.6-9.2-22.3-9.2h-35.1v175.4h35.1
		c8.7,0,16.1-3.1,22.3-9.2c6.3-6.2,9.4-13.6,9.4-22.4V1226.9z"/>
	<path class="st0" d="M600.4,1370.9c4.3,0,7.9,1.5,10.9,4.5c3.1,3.1,4.6,6.7,4.6,10.9c0,4.3-1.5,8-4.6,11c-3,3-6.6,4.5-10.9,4.5
		h-81.3c-4.3,0-8-1.5-11-4.5c-3-3.1-4.5-6.8-4.5-11v-206.3c0-4.2,1.5-7.8,4.5-10.9c3.1-3,6.8-4.5,11-4.5h81.3
		c4.3,0,7.9,1.5,10.9,4.5c3.1,3.1,4.6,6.7,4.6,10.9c0,4.3-1.5,7.9-4.6,10.9c-3,3.1-6.6,4.6-10.9,4.6h-66v64h56.1c4.3,0,8,1.5,11,4.5
		c3,3,4.5,6.6,4.5,10.9c0,4.3-1.5,7.9-4.5,10.9c-3.1,3.1-6.8,4.6-11,4.6h-56.1v80.6H600.4z"/>
	<path class="st0" d="M799.7,1370.9c4.3,0,7.9,1.5,10.9,4.5c3.1,3.1,4.6,6.7,4.6,10.9c0,4.3-1.5,8-4.6,11c-3,3-6.6,4.5-10.9,4.5h-89
		c-4.3,0-8-1.5-11-4.5c-3-3.1-4.5-6.8-4.5-11v-209.1c0-4.3,1.5-7.9,4.5-10.9c3.1-3.1,6.8-4.6,11-4.6c4.2,0,7.8,1.5,10.9,4.6
		c3,3,4.5,6.6,4.5,10.9v193.7H799.7z"/>
	<path class="st0" d="M894,1397.3c-3-3.1-4.5-6.8-4.5-11v-212.1c0-4.3,1.5-7.9,4.5-10.9c3.1-3,6.8-4.5,11-4.5
		c4.2,0,7.8,1.5,10.9,4.5c3,3,4.5,6.6,4.5,10.9v212.1c0,4.3-1.5,8-4.5,11c-3.1,3-6.7,4.5-10.9,4.5
		C900.7,1401.7,897.1,1400.2,894,1397.3z"/>
	<path class="st0" d="M1138.7,1159c4.2,1.3,7.4,3.9,9.6,7.8c2.1,4,2.5,8.1,1.2,12.4L1087,1389c-1.3,6.2-5,10.2-11,12
		c-4.3,1.2-8.4,0.8-12.2-1.3c-4-2.1-6.5-5.3-7.8-9.6l-62.8-211.2c-1.2-4.3-0.8-8.4,1.3-12.2c2.1-4,5.3-6.5,9.6-7.8
		c4.3-1.3,8.4-0.9,12.2,1.2c4,2.2,6.5,5.4,7.8,9.6l47.3,159.1l47.2-159c1.3-4.3,3.9-7.5,7.7-9.6
		C1130.2,1158.2,1134.4,1157.8,1138.7,1159z"/>
	<path class="st0" d="M1319.2,1370.9c4.3,0,7.9,1.5,10.9,4.5c3.1,3.1,4.6,6.7,4.6,10.9c0,4.3-1.5,8-4.6,11c-3,3-6.6,4.5-10.9,4.5
		h-81.3c-4.3,0-8-1.5-11-4.5c-3-3.1-4.5-6.8-4.5-11v-206.3c0-4.2,1.5-7.8,4.5-10.9c3.1-3,6.8-4.5,11-4.5h81.3
		c4.3,0,7.9,1.5,10.9,4.5c3.1,3.1,4.6,6.7,4.6,10.9c0,4.3-1.5,7.9-4.6,10.9c-3,3.1-6.6,4.6-10.9,4.6h-66v64h56.1c4.3,0,8,1.5,11,4.5
		c3,3,4.5,6.6,4.5,10.9c0,4.3-1.5,7.9-4.5,10.9c-3.1,3.1-6.8,4.6-11,4.6h-56.1v80.6H1319.2z"/>
	<path class="st0" d="M1542.4,1224.8c0,18.9-7.2,34.6-21.6,47c14.4,12.5,21.6,28.2,21.6,47v67.4c0,4.3-1.5,8-4.6,11
		c-3,3-6.6,4.5-10.9,4.5c-4.3,0-7.9-1.5-10.9-4.5c-3-3.1-4.5-6.8-4.5-11v-67.4c0-8.7-3.1-16.1-9.4-22.3c-6.2-6.2-13.6-9.2-22.3-9.2
		h-35.1v98.9c0,4.3-1.5,8-4.5,11c-3.1,3-6.7,4.5-10.9,4.5c-4.3,0-8-1.5-11-4.5c-3-3.1-4.5-6.8-4.5-11v-209.4c0-4.3,1.5-7.9,4.5-10.9
		c3.1-3,6.8-4.5,11-4.5h50.5c17.3,0,32,6.1,44.2,18.3c12.2,12.2,18.3,26.9,18.3,44V1224.8z M1444.8,1256.4h35.1
		c8.7,0,16.1-3.1,22.3-9.2c6.3-6.2,9.4-13.6,9.4-22.4v-1c0-8.7-3.1-16.1-9.4-22.3c-6.2-6.2-13.6-9.2-22.3-9.2h-35.1V1256.4z"/>
	<path class="st0" d="M1745.2,1160.5c3.8,2,6.4,5,7.6,9.1c1.3,4.1,1,8-1,11.7l-53.1,101.7v103.2c0,4.3-1.5,8-4.5,11
		c-3.1,3-6.8,4.5-11,4.5c-4.2,0-7.8-1.5-10.9-4.5c-3-3.1-4.5-6.8-4.5-11V1283l-53.1-101.7c-2-3.7-2.3-7.6-1-11.7
		c1.2-4.1,3.7-7.1,7.6-9.1c3.7-2,7.6-2.3,11.7-1c4.1,1.3,7.1,3.8,9.1,7.6l41.1,78.8l41.2-78.8c2-3.7,5-6.3,9.1-7.6
		C1737.6,1158.2,1741.5,1158.5,1745.2,1160.5z"/>
</g>
<polygon class="st1" points="1023.8,1589 345.9,1537.1 1701.8,1537.1 "/>
</svg>
