<svg id="Capa_1" data-name="Capa 1" xmlns="http://www.w3.org/2000/svg" xmlns:xlink="http://www.w3.org/1999/xlink" viewBox="0 0 124.93 141"><defs><style>.cls-1{fill:none;}.cls-2{clip-path:url(#clip-path);}.cls-3{fill:#ffac00;}.cls-4{fill:#ffce00;}.cls-5{fill:#fb0;}.cls-6{fill:#fff;}</style><clipPath id="clip-path" transform="translate(-34 -25)"><rect class="cls-1" x="34" y="25" width="124.93" height="141"/></clipPath></defs><title>truck_icon</title><g id="Ilustración_3" data-name="Ilustración 3"><g class="cls-2"><g class="cls-2"><path class="cls-3" d="M66.15,166c4.36,0,7.89-4.67,7.89-10.43H58.25c0,5.76,3.54,10.43,7.9,10.43" transform="translate(-34 -25)"/><path class="cls-3" d="M126.5,166c4.36,0,7.89-4.67,7.89-10.43H118.6c0,5.76,3.54,10.43,7.9,10.43" transform="translate(-34 -25)"/><path class="cls-3" d="M155.54,149.93H37.38A3.4,3.4,0,0,1,34,146.54V28.38A3.39,3.39,0,0,1,37.38,25H155.54a3.4,3.4,0,0,1,3.39,3.38V146.54a3.41,3.41,0,0,1-3.39,3.39" transform="translate(-34 -25)"/><path class="cls-4" d="M138.9,149.93H54a3.4,3.4,0,0,1-3.38-3.39V61.66A3.39,3.39,0,0,1,54,58.28H138.9a3.39,3.39,0,0,1,3.39,3.38v84.88a3.4,3.4,0,0,1-3.39,3.39" transform="translate(-34 -25)"/><rect class="cls-3" x="46.25" y="84.6" width="32.43" height="32.43"/><path class="cls-5" d="M147.93,155.57H45.28a3.4,3.4,0,0,1-3.38-3.39v-6.77A3.39,3.39,0,0,1,45.28,142H147.93a3.39,3.39,0,0,1,3.38,3.38v6.77a3.4,3.4,0,0,1-3.38,3.39" transform="translate(-34 -25)"/><path class="cls-6" d="M72.92,135.54H59.38a3.38,3.38,0,0,1,0-6.76H72.92a3.38,3.38,0,0,1,0,6.76" transform="translate(-34 -25)"/><path class="cls-6" d="M133.26,135.54H119.73a3.38,3.38,0,1,1,0-6.76h13.53a3.38,3.38,0,1,1,0,6.76" transform="translate(-34 -25)"/><path class="cls-6" d="M89,100.58H62.76a3.4,3.4,0,0,1-3.38-3.39V84.78a3.39,3.39,0,0,1,3.38-3.38H89a3.39,3.39,0,0,1,3.38,3.38V97.19A3.4,3.4,0,0,1,89,100.58" transform="translate(-34 -25)"/><path class="cls-6" d="M130.16,100.58H103.94a3.4,3.4,0,0,1-3.39-3.39V84.78a3.39,3.39,0,0,1,3.39-3.38h26.22a3.4,3.4,0,0,1,3.39,3.38V97.19a3.41,3.41,0,0,1-3.39,3.39" transform="translate(-34 -25)"/></g></g></g></svg>